<?xml version="1.0" encoding="iso-8859-1"?>
<!-- Generator: Adobe Illustrator 18.0.0, SVG Export Plug-In . SVG Version: 6.00 Build 0)  -->
<!DOCTYPE svg PUBLIC "-//W3C//DTD SVG 1.1//EN" "http://www.w3.org/Graphics/SVG/1.1/DTD/svg11.dtd">
<svg version="1.1" id="Capa_1" xmlns="http://www.w3.org/2000/svg" xmlns:xlink="http://www.w3.org/1999/xlink" x="0px" y="0px"
	 viewBox="0 0 428.056 428.056" style="enable-background:new 0 0 428.056 428.056;" xml:space="preserve">
<g>
	<path d="M350.149,0H77.906c-9.594,0-17.398,7.805-17.398,17.398v393.259c0,9.594,7.805,17.398,17.398,17.398h272.243
		c9.594,0,17.398-7.805,17.398-17.398V17.398C367.548,7.805,359.743,0,350.149,0z M357.548,410.657c0,4.08-3.319,7.398-7.398,7.398
		H77.906c-4.08,0-7.398-3.319-7.398-7.398V17.398c0-4.08,3.319-7.398,7.398-7.398h272.243c4.08,0,7.398,3.319,7.398,7.398V410.657z"
		/>
	<path d="M339.445,23.103H88.611c-2.761,0-5,2.239-5,5v371.85c0,2.761,2.239,5,5,5h250.833c2.761,0,5-2.239,5-5V28.103
		C344.445,25.342,342.206,23.103,339.445,23.103z M334.445,33.103v317.149H93.611V33.103H334.445z M93.611,360.252h115.417v34.701
		H93.611V360.252z M219.028,394.953v-34.701h115.417v34.701H219.028z"/>
	<path d="M173.516,64.254h84.845c2.761,0,5-2.239,5-5s-2.239-5-5-5h-84.845c-2.761,0-5,2.239-5,5S170.755,64.254,173.516,64.254z"/>
	<path d="M117.447,86.489H314.43c2.761,0,5-2.239,5-5s-2.239-5-5-5H117.447c-2.761,0-5,2.239-5,5S114.685,86.489,117.447,86.489z"/>
	<path d="M117.447,108.724H314.43c2.761,0,5-2.239,5-5s-2.239-5-5-5H117.447c-2.761,0-5,2.239-5,5S114.685,108.724,117.447,108.724z
		"/>
	<path d="M117.447,130.958H314.43c2.761,0,5-2.239,5-5s-2.239-5-5-5H117.447c-2.761,0-5,2.239-5,5S114.685,130.958,117.447,130.958z
		"/>
	<path d="M117.447,153.193H314.43c2.761,0,5-2.239,5-5s-2.239-5-5-5H117.447c-2.761,0-5,2.239-5,5S114.685,153.193,117.447,153.193z
		"/>
	<path d="M117.447,175.427H314.43c2.761,0,5-2.239,5-5s-2.239-5-5-5H117.447c-2.761,0-5,2.239-5,5S114.685,175.427,117.447,175.427z
		"/>
	<path d="M117.447,197.662H314.43c2.761,0,5-2.239,5-5s-2.239-5-5-5H117.447c-2.761,0-5,2.239-5,5S114.685,197.662,117.447,197.662z
		"/>
	<path d="M117.447,219.896H314.43c2.761,0,5-2.239,5-5s-2.239-5-5-5H117.447c-2.761,0-5,2.239-5,5S114.685,219.896,117.447,219.896z
		"/>
	<path d="M117.447,242.131H314.43c2.761,0,5-2.239,5-5s-2.239-5-5-5H117.447c-2.761,0-5,2.239-5,5S114.685,242.131,117.447,242.131z
		"/>
	<path d="M117.447,264.365H314.43c2.761,0,5-2.239,5-5s-2.239-5-5-5H117.447c-2.761,0-5,2.239-5,5S114.685,264.365,117.447,264.365z
		"/>
	<path d="M117.447,286.6H314.43c2.761,0,5-2.239,5-5s-2.239-5-5-5H117.447c-2.761,0-5,2.239-5,5S114.685,286.6,117.447,286.6z"/>
	<path d="M117.447,308.834H314.43c2.761,0,5-2.239,5-5s-2.239-5-5-5H117.447c-2.761,0-5,2.239-5,5S114.685,308.834,117.447,308.834z
		"/>
	<path d="M117.447,331.069H314.43c2.761,0,5-2.239,5-5s-2.239-5-5-5H117.447c-2.761,0-5,2.239-5,5S114.685,331.069,117.447,331.069z
		"/>
	<path d="M276.741,372.607c-1.32,0-2.61,0.53-3.54,1.46c-0.93,0.93-1.46,2.22-1.46,3.54c0,1.31,0.53,2.6,1.46,3.53
		c0.93,0.93,2.22,1.46,3.54,1.46c1.31,0,2.6-0.53,3.53-1.46c0.93-0.93,1.46-2.22,1.46-3.53c0-1.32-0.53-2.61-1.46-3.54
		C279.341,373.137,278.051,372.607,276.741,372.607z"/>
	<path d="M154.851,374.067c-0.93-0.93-2.21-1.46-3.53-1.46c-1.32,0-2.61,0.53-3.54,1.46c-0.93,0.93-1.46,2.22-1.46,3.54
		c0,1.31,0.53,2.6,1.46,3.53c0.94,0.93,2.22,1.47,3.54,1.47c1.31,0,2.6-0.54,3.53-1.47s1.47-2.22,1.47-3.53
		C156.321,376.287,155.781,374.997,154.851,374.067z"/>
</g>
<g>
</g>
<g>
</g>
<g>
</g>
<g>
</g>
<g>
</g>
<g>
</g>
<g>
</g>
<g>
</g>
<g>
</g>
<g>
</g>
<g>
</g>
<g>
</g>
<g>
</g>
<g>
</g>
<g>
</g>
</svg>
